<?xml version="1.0" standalone="no"?>
<!DOCTYPE svg PUBLIC "-//W3C//DTD SVG 20010904//EN"
 "http://www.w3.org/TR/2001/REC-SVG-20010904/DTD/svg10.dtd">
<svg version="1.0" xmlns="http://www.w3.org/2000/svg"
 width="1024.000000pt" height="1024.000000pt" viewBox="0 0 1024.000000 1024.000000"
 preserveAspectRatio="xMidYMid meet">
<metadata>
Created by potrace 1.11, written by Peter Selinger 2001-2013
</metadata>
<g transform="translate(0.000000,1024.000000) scale(0.100000,-0.100000)"
fill="#000000" stroke="none">
<path d="M4858 10235 c-1 -1 -50 -5 -108 -9 -58 -3 -116 -8 -130 -11 -14 -2
-52 -7 -85 -10 -119 -11 -315 -41 -445 -70 -41 -9 -86 -18 -100 -21 -90 -17
-361 -94 -500 -141 -536 -180 -993 -422 -1455 -769 -82 -62 -161 -123 -175
-136 -14 -13 -38 -34 -55 -46 -51 -40 -214 -192 -324 -302 -292 -294 -537
-612 -778 -1007 -142 -235 -320 -621 -423 -918 -69 -202 -140 -458 -174 -635
-2 -14 -9 -47 -15 -75 -6 -27 -13 -66 -16 -85 -12 -77 -34 -238 -40 -285 -3
-27 -8 -64 -10 -81 -26 -188 -26 -858 0 -1015 2 -13 6 -51 10 -84 3 -33 8 -76
10 -95 11 -75 27 -176 32 -205 3 -16 7 -39 8 -50 7 -43 16 -89 20 -94 2 -4 6
-24 9 -46 6 -38 50 -211 95 -375 114 -417 358 -943 628 -1355 80 -121 278
-392 338 -460 14 -16 49 -57 78 -90 29 -33 73 -83 100 -111 26 -28 47 -53 47
-56 0 -4 -13 -11 -29 -16 -16 -6 -41 -27 -57 -48 l-29 -37 -3 -348 -3 -348
-188 -3 -188 -3 -36 -28 c-65 -50 -67 -60 -67 -433 l0 -334 4320 0 4321 0 -3
348 c-3 340 -3 348 -25 378 -47 65 -59 69 -265 72 l-187 4 -3 347 -3 348 -26
34 c-15 19 -39 41 -55 49 -16 8 -31 16 -33 17 -2 2 18 27 45 56 64 68 156 174
186 212 12 17 28 36 35 43 26 27 212 279 270 367 141 212 334 561 422 765 13
30 32 73 42 95 126 286 284 828 325 1115 3 19 7 46 9 60 12 62 23 148 31 225
3 33 7 71 10 85 25 156 25 850 0 1000 -3 14 -7 50 -10 80 -3 30 -10 87 -15
125 -6 39 -13 88 -16 110 -3 22 -8 51 -11 65 -2 14 -6 36 -9 50 -5 23 -20 101
-31 160 -46 235 -187 678 -288 905 -12 28 -29 66 -36 85 -7 19 -59 125 -115
235 -91 178 -116 225 -186 340 -106 174 -304 451 -444 622 -168 203 -485 520
-658 656 -15 12 -39 32 -52 44 -36 32 -280 213 -350 260 -259 173 -455 284
-720 408 -374 175 -868 332 -1220 389 -36 6 -82 14 -110 20 -11 2 -45 7 -75
11 -30 4 -62 9 -71 10 -29 6 -115 15 -294 32 -50 4 -642 12 -647 8z"/>
</g>
</svg>
